<svg width="980" height="781" viewBox="0 0 980 781" fill="none" xmlns="http://www.w3.org/2000/svg">
    <g style="mix-blend-mode:luminosity" opacity="0.2">
        <path d="M895.178 512.816L905.592 436.58L832.034 475.277L895.178 512.816Z" fill="#BABABA"/>
        <path d="M921.106 363.184L967.7 278.768L828.555 369.888L921.106 363.184Z" fill="#A5A5A5"/>
        <path d="M806.752 337.526L866.663 454.755L881.921 364.322L806.752 337.526Z" fill="#DADADA"/>
        <path d="M985.42 413.557L939.986 430.727L966.674 451.475L985.42 413.557Z" fill="#A5A5A5"/>
        <path d="M935.03 279.987L947.856 203.618L868.767 244.273L935.03 279.987Z" fill="#BABABA"/>
        <path d="M857.983 247.779L937.082 207.124L800.544 167.381L857.983 247.779Z" fill="#CDCDCD"/>
        <path d="M835.953 314.41L927.878 285.748L861.605 250.045L835.953 314.41Z" fill="#A5A5A5"/>
        <path d="M891.761 455.442L978.309 388.606L945.537 298.152L891.761 455.442Z" fill="#CDCDCD"/>
        <path d="M549.826 381L610.158 297.455L511.564 326.885L549.826 381Z" fill="#A5A5A5"/>
        <path d="M329.92 525.763L491.566 470.254L514.796 387.54L329.92 525.763Z" fill="#C6C6C6"/>
        <path d="M385.758 390.851L326.329 343.584L374.892 448.697L385.758 390.851Z" fill="#A5A5A5"/>
        <path d="M671.609 571.103L611.81 574.762L695.824 610.733L671.609 571.103Z" fill="#A5A5A5"/>
        <path d="M95.7111 455.924L115.945 364.721L14.5496 467.005L95.7111 455.924Z" fill="#DADADA"/>
        <path d="M499.877 348.627L474.359 289.326L410.866 364.322L499.877 348.627Z" fill="#DADADA"/>
        <path d="M622.994 411.681L662.641 382.804L604.864 380.61L622.994 411.681Z" fill="#CDCDCD"/>
        <path d="M620.952 472.335L563.134 428.472L535.409 536.26L620.952 472.335Z" fill="#BABABA"/>
        <path d="M811.328 167.279L947.856 207.022L843.115 131.278L811.328 167.279Z" fill="#BABABA"/>
        <path d="M725.867 460.772L792.428 470.357L849.959 382.681L725.867 460.772Z" fill="#BABABA"/>
        <path d="M458.055 25.7959L459.994 67.5581L478.381 22.5976L458.055 25.7959Z" fill="#CDCDCD"/>
        <path d="M567.966 175.254L601.765 212.793L628.237 175.633L567.966 175.254Z" fill="#DADADA"/>
        <path d="M595.126 50.5723L619.649 132.026L689.965 83.5187L595.126 50.5723Z" fill="#A5A5A5"/>
        <path d="M935.03 78.9981L855.941 28.7994L843.115 127.874L935.03 78.9981Z" fill="#949494"/>
        <path d="M652.278 14.1202L712.682 75.2565L704.207 -14.4491L652.278 14.1202Z" fill="#CDCDCD"/>
        <path d="M405.797 194.956L445.526 99.3051L352.832 143.558L405.797 194.956Z" fill="#A5A5A5"/>
        <path d="M382.701 307.409L484.414 327.377L422.655 245.37L382.701 307.409Z" fill="#A5A5A5"/>
        <path d="M314.97 409.364L278.812 378.55L271.311 438.651L314.97 409.364Z" fill="#DADADA"/>
        <path d="M202.76 97.2857L341.299 112.303L258.393 42.2691L202.76 97.2857Z" fill="#BABABA"/>
        <path d="M743.977 352.102L767.895 408.595L782.506 318.111L743.977 352.102Z" fill="#A5A5A5"/>
        <path d="M566.448 119.048L530.546 73.5446L516.037 145.731L566.448 119.048Z" fill="#BABABA"/>
        <path d="M723.856 58.4963L647.794 132.754H822.963L723.856 58.4963Z" fill="#BABABA"/>
        <path d="M854.823 232.772L824.431 138.781L810.876 286.374L854.823 232.772Z" fill="#BABABA"/>
        <path d="M579.048 202.45L534.66 263.76L603.396 288.977L579.048 202.45Z" fill="#BABABA"/>
        <path d="M675.364 309.1L708.075 283.073L665.812 263.658L675.364 309.1Z" fill="#DADADA"/>
        <path d="M651.816 356.193L653.817 318.439L619.711 340.488L651.816 356.193Z" fill="#A5A5A5"/>
        <path d="M703.622 211.819L665.791 257.63L753.253 291.017L703.622 211.819Z" fill="#CDCDCD"/>
        <path d="M702.74 356.849L700.051 400.671L733.604 380.692L702.74 356.849Z" fill="#BABABA"/>
        <path d="M195.66 267.492L285.892 165.464L204.474 147.659L195.66 267.492Z" fill="#CDCDCD"/>
        <path d="M847.815 297.701L795.147 184.162L763.729 265.493L847.815 297.701Z" fill="#DADADA"/>
        <path d="M480.269 252.761L558.588 174.116L447.599 207.801L480.269 252.761Z" fill="#949494"/>
        <path d="M694.49 198.657L636.764 167.525L648.492 236.278L694.49 198.657Z" fill="#A5A5A5"/>
        <path d="M824.564 145.506H649.395L705.818 178.955L824.564 145.506Z" fill="#DADADA"/>
        <path d="M247.63 256.718L267.792 308.905L272.03 275.18L247.63 256.718Z" fill="#BABABA"/>
        <path d="M812.928 219.435L713.37 191.707L737.831 275.118L812.928 219.435Z" fill="#BABABA"/>
        <path d="M368.428 346.711L403.509 312.011L325.272 258.092L368.428 346.711Z" fill="#BABABA"/>
        <path d="M623.507 226.601L577.755 234.135L601.97 251.531L623.507 226.601Z" fill="#A5A5A5"/>
        <path d="M729.068 339.463L683.316 346.998L707.531 364.393L729.068 339.463Z" fill="#A5A5A5"/>
        <path d="M730.926 486.707L705.315 550.324L820.983 501.571L730.926 486.707Z" fill="#949494"/>
        <path d="M200.154 62.2481L201.416 22.3414L168.284 72.4785L200.154 62.2481Z" fill="#949494"/>
        <path d="M916.479 7.74409L798.502 -28.6671L855.941 28.7994L916.479 7.74409Z" fill="#BABABA"/>
        <path d="M608.157 6.99578L571.209 13.5461L576.606 26.7903L608.157 6.99578Z" fill="#A5A5A5"/>
        <path d="M933.06 331.713L1032.6 493.063L997.579 409.456L933.06 331.713Z" fill="#CDCDCD"/>
        <path d="M871.876 515.194L906.618 569.842L975.744 492.089L871.876 515.194Z" fill="#DADADA"/>
        <path d="M991.289 566.736L985.994 653.161L1050 625.699L991.289 566.736Z" fill="#A5A5A5"/>
        <path d="M1010.81 248.497L996.563 59.9417L976 149.135L1010.81 248.497Z" fill="#DADADA"/>
        <path d="M947.856 203.618L1010.81 248.497L976 149.135L947.856 203.618Z" fill="#A5A5A5"/>
        <path d="M935.03 279.987L1010.81 248.497L947.856 203.618L935.03 279.987Z" fill="#949494"/>
        <path d="M44.6747 66.902L66.3452 19.5224L26.5647 38.0047L44.6747 66.902Z" fill="#A5A5A5"/>
        <path d="M186.518 342.672L143.577 361.093L205.89 464.575L186.518 342.672Z" fill="#DADADA"/>
        <path d="M484.24 695.743L407.152 660.542L433.552 732.534L484.24 695.743Z" fill="#BABABA"/>
        <path d="M283.48 640.368L309.758 654.842L313.954 635.56L283.48 640.368Z" fill="#DADADA"/>
        <path d="M341.925 601.609L365.955 501.991L314.221 549.155L341.925 601.609Z" fill="#CDCDCD"/>
        <path d="M821.804 579.426L850.523 571.513L795.414 562.348L821.804 579.426Z" fill="#A5A5A5"/>
        <path d="M787.595 684.683L806.598 674.914L752.37 628.969L787.595 684.683Z" fill="#949494"/>
        <path d="M459.984 604.398L500.144 662.295L510.332 471.177L459.984 604.398Z" fill="#CDCDCD"/>
        <path d="M754.156 566.664L650.759 617.498L715.935 660.859L754.156 566.664Z" fill="#DADADA"/>
        <path d="M633.757 778.745L588.477 692.361L543.3 781L633.757 778.745Z" fill="#BABABA"/>
        <path d="M1010.81 0.875992L798.502 -28.6671L916.479 7.74409L1010.81 0.875992Z" fill="#DADADA"/>
        <path d="M996.563 59.9417L1010.81 0.875992L916.479 7.74409L996.563 59.9417Z" fill="#BABABA"/>
        <path d="M976 149.135L935.03 78.9981L843.115 127.874L976 149.135Z" fill="#A5A5A5"/>
        <path d="M916.479 7.74409L855.941 28.7994L935.03 78.9981L916.479 7.74409Z" fill="#CDCDCD"/>
        <path d="M947.856 203.618L976 149.135L843.115 127.874L947.856 203.618Z" fill="#DADADA"/>
        <path d="M836.087 137.1L848.912 38.0252L736.979 62.8427L836.087 137.1Z" fill="#DADADA"/>
        <path d="M976 149.135L996.563 59.9417L935.03 78.9981L976 149.135Z" fill="#BABABA"/>
        <path d="M935.03 78.9981L996.563 59.9417L916.479 7.74409L935.03 78.9981Z" fill="#DADADA"/>
        <path d="M855.941 28.7994L798.502 -28.6671L729.951 -3.92143L855.941 28.7994Z" fill="#A5A5A5"/>
        <path d="M844.623 30.7471L718.644 -1.98401L732.69 55.5543L844.623 30.7471Z" fill="#BABABA"/>
        <path d="M616.756 -39L452.504 54.4882L578.473 5.83743L616.756 -39Z" fill="#E5E5E5"/>
        <path d="M702.452 -26.2889L593.136 -13.8238L662.036 13.4436L702.452 -26.2889Z" fill="#CDCDCD"/>
        <path d="M591.956 80.874L604.063 117.726L614.827 97.7777L591.956 80.874Z" fill="#BABABA"/>
        <path d="M470.716 -5.71533L311.143 -7.66301L452.914 29.1377L470.716 -5.71533Z" fill="#BABABA"/>
        <path d="M0 516.014L93.1151 643.269L71.0035 556.731L0 516.014Z" fill="#C6C6C6"/>
        <path d="M811.328 163.876L843.115 127.874L724.359 161.313L811.328 163.876Z" fill="#A5A5A5"/>
        <path d="M997.989 369.365L1010.81 248.497L935.03 279.987L997.989 369.365Z" fill="#BABABA"/>
        <path d="M710.753 438.764L656.228 413.977L641.566 483.427L710.753 438.764Z" fill="#949494"/>
    </g>
</svg>
